# xmcd CD database file
#
# Track frame offsets:
#	150
#	12754
#	29146
#	46432
#	62173
#	78815
#	97097
#	110357
#	131490
#	144606
#	165621
#	178008
#	193284
#
# Disc length: 2834 seconds
#
# Revision: 0
# Processed by: cddbd v1.5.2PL0 Copyright (c) Steve Scherf et al.
# Submitted via: CDex 1.51
#
DISCID=b60b100d
DTITLE=Blues Blasters - Explosive RnB
DYEAR=2003
DGENRE=Blues
TTITLE0=roll roll roll
TTITLE1=wait on time
TTITLE2=4 time boogie
TTITLE3=rollin' stone
TTITLE4=red red eyes
TTITLE5=really long gone
TTITLE6=honey (you should see me now)
TTITLE7=she's ready now
TTITLE8=mercury blues
TTITLE9=swampy night
TTITLE10=dirty work
TTITLE11=you never can tell
TTITLE12=always missing you
EXTD=YEAR: 2003
EXTT0=
EXTT1=
EXTT2=
EXTT3=
EXTT4=
EXTT5=
EXTT6=
EXTT7=
EXTT8=
EXTT9=
EXTT10=
EXTT11=
EXTT12=
PLAYORDER=
